<?xml version="1.0" encoding="utf-8"?>
<!-- Generator: Adobe Illustrator 15.1.0, SVG Export Plug-In . SVG Version: 6.00 Build 0)  -->
<!DOCTYPE svg PUBLIC "-//W3C//DTD SVG 1.1//EN" "http://www.w3.org/Graphics/SVG/1.1/DTD/svg11.dtd">
<svg version="1.1" id="Layer_1" xmlns="http://www.w3.org/2000/svg" xmlns:xlink="http://www.w3.org/1999/xlink" x="0px" y="0px"
	 width="169.005px" height="182.893px" viewBox="0 0 169.005 182.893" enable-background="new 0 0 169.005 182.893"
	 xml:space="preserve">
<g>
	<defs>
		<rect id="SVGID_1_" width="169.005" height="182.893"/>
	</defs>
	<clipPath id="SVGID_2_">
		<use xlink:href="#SVGID_1_"  overflow="visible"/>
	</clipPath>
	<path clip-path="url(#SVGID_2_)" fill="#807973" d="M138.9,126.278c-10.826,14.985-28.113,24.989-47.328,24.989
		c-32.106,0-58.986-27.834-58.986-60.407c0-25.203,15.217-46.638,36.977-55.425L60.682,4.958C25.289,17.63,0,51.395,0,91.564
		c0,50.897,41.629,91.329,91.572,91.329c29.929,0,56.796-14.574,73.578-37.164L138.9,126.278z"/>
	<path clip-path="url(#SVGID_2_)" fill="#7E7974" d="M69.562,35.436L60.682,4.958C25.29,17.63,0,51.389,0,91.564
		c0,24.117,9.424,45.826,24.579,62.054C-3.773,90.636,35.805,46.911,69.562,35.436"/>
	<path clip-path="url(#SVGID_2_)" fill="#494646" d="M24.884,154.08c16.795,17.787,40.606,28.813,66.688,28.813
		c29.93,0,56.797-14.581,73.579-37.164l-26.25-19.452c-10.827,14.987-28.113,24.99-47.329,24.99
		c-32.105,0-58.985-27.833-58.985-60.413c0-25.196,15.218-46.631,36.977-55.418c-33.759,11.475-73.336,55.2-44.985,118.183
		L24.884,154.08z"/>
	<path clip-path="url(#SVGID_2_)" fill="#F3704D" d="M139.817,15.391c-0.287-1.378-1.135-2.594-2.339-3.346
		c-5.806-3.595-12.067-6.227-18.616-7.83c-1.391-0.343-2.875-0.081-4.054,0.692c-1.178,0.774-2.002,2.012-2.263,3.399l-3.736,20.422
		c-0.481,2.635,1.097,5.17,3.673,5.9c2.732,0.776,5.326,1.877,7.702,3.277c0.755,0.443,1.622,0.689,2.507,0.708
		c0.768,0.016,1.547-0.143,2.258-0.465c0.83-0.374,1.548-0.973,2.077-1.727l11.949-17.001
		C139.799,18.26,140.104,16.794,139.817,15.391"/>
	<path clip-path="url(#SVGID_2_)" fill="#3EAFD1" d="M101.107,2.385c-0.854-1.12-2.146-1.849-3.556-2.005
		c-6.791-0.736-13.577-0.399-20.175,0.979c-1.403,0.293-2.632,1.169-3.355,2.376c-0.73,1.207-0.936,2.676-0.574,4.042l5.451,20.031
		c0.698,2.582,3.224,4.188,5.856,3.736c2.807-0.48,5.619-0.608,8.363-0.374c0.873,0.075,1.759-0.075,2.57-0.44
		c0.697-0.318,1.334-0.798,1.833-1.394c0.586-0.698,0.973-1.547,1.135-2.457l3.43-20.493C102.329,4.983,101.974,3.529,101.107,2.385
		"/>
	<path clip-path="url(#SVGID_2_)" fill="#98CB5B" d="M168.843,43.824c0.354-1.366,0.118-2.831-0.63-4.029
		c-3.637-5.784-8.102-10.901-13.278-15.22c-1.097-0.92-2.544-1.338-3.941-1.163c-1.402,0.181-2.688,0.929-3.529,2.058
		l-12.336,16.698c-1.591,2.155-1.285,5.13,0.704,6.914c2.114,1.902,3.961,4.031,5.477,6.33c0.486,0.729,1.153,1.334,1.945,1.74
		c0.68,0.349,1.446,0.555,2.227,0.573c0.911,0.026,1.821-0.193,2.632-0.633l18.204-10.019
		C167.563,46.394,168.487,45.211,168.843,43.824"/>
</g>
</svg>
