<?xml version="1.0" encoding="utf-8"?>
<!-- Generator: Adobe Illustrator 15.1.0, SVG Export Plug-In . SVG Version: 6.00 Build 0)  -->
<!DOCTYPE svg PUBLIC "-//W3C//DTD SVG 1.1//EN" "http://www.w3.org/Graphics/SVG/1.1/DTD/svg11.dtd">
<svg version="1.1" id="Layer_1" xmlns="http://www.w3.org/2000/svg" xmlns:xlink="http://www.w3.org/1999/xlink" x="0px" y="0px"
	 width="184.477px" height="78.109px" viewBox="0 0 184.477 78.109" enable-background="new 0 0 184.477 78.109"
	 xml:space="preserve">
<polygon fill="#75B257" points="32.076,42.722 32.079,43.032 23.394,60.455 15.188,61.095 0,62.478 13.456,67.315 29.723,78.109
	62.142,69.161 63.922,60.683 49.505,59.131 53.286,40.031 31.72,0.545 "/>
<polygon fill="#608C48" points="96.958,62.401 92.924,58.573 77.206,62.114 67.258,61.042 65.594,68.632 104.22,66.436
	105.723,65.116 "/>
<polygon fill="#608C48" points="31.758,6.525 34.31,5.808 31.751,5.808 "/>
<polygon fill="#608C48" points="31.829,14.239 35.501,13.321 31.82,13.284 "/>
<polygon fill="#608C48" points="31.902,22.22 37.958,20.887 31.89,20.771 "/>
<polygon fill="#608C48" points="31.973,29.875 39.913,28.374 31.957,28.164 "/>
<polygon fill="#608C48" points="32.043,37.521 41.28,35.964 32.026,35.649 "/>
<polygon fill="#608C48" points="31.006,45.426 42.318,43.781 32.073,43.367 "/>
<polygon fill="#608C48" points="27.139,52.89 40.459,51.207 28.304,50.643 "/>
<polygon fill="#608C48" points="23.211,60.469 38.521,59.103 24.336,58.296 "/>
<polygon fill="#608C48" points="31.795,10.519 35.028,9.61 31.787,9.609 "/>
<polygon fill="#608C48" points="31.867,18.303 36.579,17.125 31.855,17.077 "/>
<polygon fill="#608C48" points="31.94,26.304 39.273,24.689 31.924,24.549 "/>
<polygon fill="#608C48" points="32.009,33.815 40.671,32.177 31.992,31.947 "/>
<polygon fill="#608C48" points="32.08,41.492 42.317,39.767 32.061,39.418 "/>
<polygon fill="#608C48" points="28.991,49.314 41.839,47.523 30.153,47.071 "/>
<polygon fill="#608C48" points="25.1,56.824 39.462,55.011 26.356,54.4 "/>
<polygon fill="#608C48" points="32.097,43.32 16.68,24.089 22.367,44.717 15.188,61.094 23.394,60.456 "/>
<g>
	<defs>
		<rect id="SVGID_1_" y="0" width="184.477" height="78.109"/>
	</defs>
	<clipPath id="SVGID_2_">
		<use xlink:href="#SVGID_1_"  overflow="visible"/>
	</clipPath>
	<path clip-path="url(#SVGID_2_)" fill="#F5F4F0" d="M75.73,29.771c1.222-0.001,2.175,0.415,2.861,1.249
		c0.685,0.833,0.924,1.875,0.717,3.127l-2.283,12.988c-0.208,1.251-0.743,2.233-1.606,2.979c-0.863,0.745-1.905,1.104-3.126,1.104
		l-11.14,0.009l3.735-21.448L75.73,29.771z M71.604,47.169c0.715-0.001,1.132-0.389,1.28-1.163l1.987-11.32
		C74.93,34.358,74.93,34.12,74.841,34c-0.089-0.119-0.298-0.178-0.625-0.178l-5.749,0.005l-2.312,13.345L71.604,47.169z"/>
	<path clip-path="url(#SVGID_2_)" fill="#F5F4F0" d="M84.623,46.801c-0.059,0.298,0,0.506,0.089,0.625
		c0.09,0.119,0.269,0.179,0.538,0.179l0.476-0.001c1.102-0.001,2.114-0.27,3.067-0.777l0.714-0.387l2.016-11.35l4.111-0.004
		l-2.817,16.087l-4.11,0.003l0.416-2.085l-0.625,0.565c-1.191,1.104-2.382,1.611-3.544,1.611l-0.983,0.001
		c-1.161,0.001-2.085-0.385-2.771-1.219c-0.686-0.833-0.924-1.847-0.717-3.037l2.105-11.886l4.111-0.003L84.623,46.801z"/>
	<path clip-path="url(#SVGID_2_)" fill="#F5F4F0" d="M100.295,51.345c-1.162,0.001-2.085-0.386-2.771-1.219
		c-0.686-0.833-0.925-1.846-0.717-3.037l1.423-7.984c0.208-1.192,0.743-2.175,1.606-2.92c0.862-0.746,1.875-1.134,3.037-1.135
		l4.734-0.003c1.162-0.001,2.086,0.415,2.772,1.248c0.685,0.834,0.925,1.846,0.718,3.038l-0.298,1.698l-4.11,0.003l0.297-1.757
		c0.089-0.507-0.09-0.745-0.507-0.745l-3.038,0.003c-0.655,0-1.072,0.358-1.19,1.043l-1.305,7.507
		c-0.089,0.507,0.09,0.745,0.537,0.744l3.038-0.002c0.655-0.001,1.012-0.358,1.131-1.044l0.236-1.459L110,45.321l-0.326,1.995
		c-0.208,1.191-0.743,2.146-1.606,2.891c-0.862,0.745-1.876,1.074-3.037,1.075L100.295,51.345z"/>
	<polygon clip-path="url(#SVGID_2_)" fill="#F5F4F0" points="126.417,51.175 122.217,51.178 119.501,44.539 116.645,47.37
		115.934,51.183 111.882,51.187 115.617,29.738 119.668,29.735 117.415,42.277 123.873,35.093 129.085,35.089 122.478,41.617 	"/>
	<path clip-path="url(#SVGID_2_)" fill="#F5F4F0" d="M139.723,39.488c0.06-0.298-0.001-0.506-0.089-0.625
		c-0.09-0.119-0.27-0.179-0.537-0.179l-0.506,0.001c-1.162,0.001-2.205,0.27-3.127,0.776l-0.686,0.388l-2.016,11.319l-4.11,0.005
		l3.943-22.491l4.11-0.004l-1.571,8.52l0.624-0.566c1.19-1.103,2.382-1.64,3.544-1.641l0.981-0.001
		c1.162-0.001,2.086,0.415,2.771,1.249c0.686,0.833,0.926,1.846,0.718,3.037l-2.075,11.886l-4.11,0.004L139.723,39.488z"/>
	<path clip-path="url(#SVGID_2_)" fill="#F5F4F0" d="M156.878,35.006c1.161-0.001,2.085,0.415,2.771,1.249
		c0.686,0.833,0.924,1.846,0.717,3.037l-1.393,7.984c-0.208,1.192-0.744,2.146-1.605,2.89c-0.863,0.746-1.877,1.074-3.038,1.075
		l-5.094,0.004c-1.162,0.001-2.085-0.385-2.771-1.219c-0.687-0.833-0.924-1.846-0.717-3.037l1.423-7.984
		c0.207-1.191,0.743-2.175,1.605-2.92c0.863-0.745,1.875-1.133,3.037-1.134L156.878,35.006z M156.256,39.267
		c0.088-0.506-0.09-0.745-0.507-0.744l-3.396,0.002c-0.656,0.001-1.073,0.359-1.19,1.044l-1.306,7.507
		c-0.089,0.506,0.09,0.744,0.537,0.744l3.396-0.003c0.626,0,1.043-0.358,1.161-1.043L156.256,39.267z"/>
	<polygon clip-path="url(#SVGID_2_)" fill="#F5F4F0" points="169.86,28.622 165.917,51.144 161.807,51.146 165.75,28.625 	"/>
	<path clip-path="url(#SVGID_2_)" fill="#F5F4F0" d="M180.916,34.987c1.162-0.001,2.085,0.415,2.771,1.249
		c0.687,0.833,0.925,1.845,0.718,3.037l-0.89,5.094l-8.906,0.007l-0.474,2.711c-0.061,0.269,0,0.447,0.06,0.566
		s0.238,0.178,0.507,0.178l3.156-0.002c0.626-0.001,1.014-0.358,1.161-1.044l0.149-0.745l4.109-0.003l-0.207,1.223
		c-0.208,1.19-0.743,2.145-1.605,2.89c-0.863,0.745-1.876,1.074-3.038,1.075l-4.855,0.004c-1.16,0.001-2.085-0.386-2.771-1.219
		c-0.686-0.834-0.924-1.847-0.717-3.038l1.423-7.983c0.208-1.192,0.743-2.175,1.605-2.921c0.863-0.745,1.875-1.133,3.037-1.134
		L180.916,34.987z M180.323,39.188c0.09-0.506-0.091-0.745-0.536-0.744l-3.158,0.002c-0.625,0.001-1.041,0.359-1.16,1.044
		l-0.356,2.055l4.796-0.004L180.323,39.188z"/>
</g>
</svg>
