<?xml version="1.0" encoding="utf-8"?>
<!-- Generator: Adobe Illustrator 15.1.0, SVG Export Plug-In . SVG Version: 6.00 Build 0)  -->
<!DOCTYPE svg PUBLIC "-//W3C//DTD SVG 1.1//EN" "http://www.w3.org/Graphics/SVG/1.1/DTD/svg11.dtd">
<svg version="1.1" id="Layer_1" xmlns="http://www.w3.org/2000/svg" xmlns:xlink="http://www.w3.org/1999/xlink" x="0px" y="0px"
	 width="133.262px" height="108.589px" viewBox="0 0 133.262 108.589" enable-background="new 0 0 133.262 108.589"
	 xml:space="preserve">
<polygon fill="#75B257" points="39.323,44.232 39.326,44.556 30.334,62.595 21.838,63.255 6.112,64.688 20.044,69.697
	36.888,80.873 70.453,71.607 72.296,62.831 57.37,61.222 61.284,41.448 38.954,0.564 "/>
<polygon fill="#608C48" points="106.5,64.609 102.323,60.646 86.05,64.312 75.749,63.202 74.026,71.061 114.02,68.786
	115.575,67.42 "/>
<polygon fill="#608C48" points="38.994,6.755 41.636,6.013 38.987,6.012 "/>
<polygon fill="#608C48" points="39.068,14.744 42.87,13.792 39.059,13.754 "/>
<polygon fill="#608C48" points="39.144,23.005 45.413,21.625 39.129,21.506 "/>
<polygon fill="#608C48" points="39.216,30.933 47.438,29.377 39.201,29.161 "/>
<polygon fill="#608C48" points="39.289,38.848 48.853,37.237 39.271,36.911 "/>
<polygon fill="#608C48" points="38.214,47.034 49.927,45.33 39.319,44.902 "/>
<polygon fill="#608C48" points="34.21,54.761 48.003,53.019 35.417,52.434 "/>
<polygon fill="#608C48" points="30.145,62.607 45.996,61.194 31.31,60.359 "/>
<polygon fill="#608C48" points="39.032,10.891 42.379,9.951 39.023,9.95 "/>
<polygon fill="#608C48" points="39.106,18.95 43.984,17.729 39.094,17.681 "/>
<polygon fill="#608C48" points="39.183,27.234 46.774,25.563 39.166,25.418 "/>
<polygon fill="#608C48" points="39.254,35.011 48.223,33.314 39.236,33.077 "/>
<polygon fill="#608C48" points="39.327,42.96 49.927,41.175 39.307,40.813 "/>
<polygon fill="#608C48" points="36.128,51.059 49.432,49.205 37.332,48.737 "/>
<polygon fill="#608C48" points="32.1,58.834 46.971,56.957 33.4,56.325 "/>
<polygon fill="#608C48" points="39.345,44.853 23.382,24.942 29.27,46.298 21.838,63.255 30.333,62.594 "/>
<g>
	<defs>
		<rect id="SVGID_1_" width="133.262" height="108.589"/>
	</defs>
	<clipPath id="SVGID_2_">
		<use xlink:href="#SVGID_1_"  overflow="visible"/>
	</clipPath>
	<path clip-path="url(#SVGID_2_)" fill="#F5F4F0" d="M15.755,85.271c1.32-0.001,2.351,0.449,3.092,1.351
		c0.741,0.9,1,2.026,0.775,3.379l-2.467,14.038c-0.224,1.352-0.803,2.415-1.736,3.221c-0.932,0.805-2.059,1.192-3.379,1.193
		L0,108.462l4.038-23.181L15.755,85.271z M11.296,104.075c0.773-0.001,1.223-0.42,1.383-1.258l2.147-12.233
		c0.065-0.354,0.064-0.612-0.033-0.741c-0.096-0.128-0.321-0.192-0.676-0.192l-6.212,0.006l-2.5,14.424L11.296,104.075z"/>
	<path clip-path="url(#SVGID_2_)" fill="#F5F4F0" d="M25.36,103.677c-0.064,0.322,0,0.548,0.097,0.677s0.291,0.192,0.58,0.192
		l0.515-0.001c1.191-0.001,2.285-0.291,3.315-0.839l0.772-0.42l2.179-12.266l4.443-0.004l-3.044,17.386l-4.443,0.004l0.449-2.254
		l-0.676,0.612c-1.286,1.191-2.573,1.739-3.829,1.741h-1.062c-1.256,0.001-2.254-0.416-2.995-1.316
		c-0.741-0.901-0.999-1.995-0.775-3.283l2.275-12.846l4.442-0.004L25.36,103.677z"/>
	<path clip-path="url(#SVGID_2_)" fill="#F5F4F0" d="M42.295,108.589c-1.256,0.001-2.253-0.417-2.995-1.317
		c-0.741-0.9-0.999-1.996-0.775-3.282l1.538-8.629c0.224-1.288,0.803-2.352,1.736-3.156c0.933-0.807,2.027-1.226,3.283-1.227
		l5.118-0.004c1.255-0.001,2.254,0.448,2.995,1.35c0.741,0.9,1,1.994,0.776,3.282L53.65,97.44l-4.443,0.005l0.321-1.9
		c0.096-0.547-0.098-0.804-0.548-0.804l-3.284,0.003c-0.708,0-1.158,0.387-1.287,1.128l-1.41,8.113
		c-0.095,0.547,0.098,0.805,0.581,0.804l3.283-0.002c0.708-0.001,1.094-0.389,1.222-1.128l0.257-1.578l4.443-0.003l-0.353,2.157
		c-0.225,1.287-0.803,2.317-1.736,3.123s-2.027,1.16-3.283,1.161L42.295,108.589z"/>
	<polygon clip-path="url(#SVGID_2_)" fill="#F5F4F0" points="70.525,108.405 65.986,108.409 63.051,101.232 59.963,104.293
		59.193,108.414 54.816,108.418 58.853,85.236 63.231,85.233 60.796,98.788 67.775,91.024 73.408,91.019 66.268,98.075 	"/>
	<path clip-path="url(#SVGID_2_)" fill="#F5F4F0" d="M84.902,95.774c0.064-0.322,0-0.547-0.097-0.676
		c-0.098-0.13-0.29-0.193-0.579-0.193l-0.548,0.001c-1.255,0.001-2.382,0.291-3.379,0.84l-0.74,0.419l-2.181,12.234l-4.441,0.004
		l4.261-24.309l4.443-0.004l-1.699,9.208l0.676-0.611c1.287-1.192,2.574-1.773,3.83-1.774h1.062
		c1.255-0.001,2.254,0.448,2.995,1.349c0.74,0.901,0.998,1.995,0.774,3.283l-2.243,12.847l-4.442,0.004L84.902,95.774z"/>
	<path clip-path="url(#SVGID_2_)" fill="#F5F4F0" d="M103.439,90.931c1.255-0.001,2.254,0.448,2.994,1.35
		c0.741,0.9,1,1.995,0.775,3.283l-1.506,8.628c-0.225,1.288-0.803,2.319-1.736,3.124c-0.932,0.806-2.026,1.161-3.283,1.162
		l-5.504,0.004c-1.256,0.001-2.254-0.416-2.995-1.317c-0.74-0.9-1-1.995-0.774-3.282l1.538-8.63c0.224-1.287,0.803-2.35,1.735-3.155
		c0.934-0.807,2.027-1.226,3.282-1.227L103.439,90.931z M102.767,95.534c0.097-0.547-0.098-0.805-0.549-0.804l-3.669,0.003
		c-0.709,0-1.159,0.387-1.287,1.127l-1.41,8.114c-0.096,0.547,0.098,0.805,0.58,0.804l3.67-0.003c0.677,0,1.126-0.387,1.256-1.128
		L102.767,95.534z"/>
	<polygon clip-path="url(#SVGID_2_)" fill="#F5F4F0" points="117.466,84.03 113.205,108.37 108.762,108.374 113.024,84.034 	"/>
	<path clip-path="url(#SVGID_2_)" fill="#F5F4F0" d="M129.414,90.909c1.255-0.001,2.254,0.448,2.995,1.35s0.999,1.995,0.774,3.283
		l-0.961,5.506l-9.625,0.007l-0.513,2.931c-0.065,0.289,0,0.482,0.064,0.611s0.258,0.193,0.548,0.193l3.412-0.003
		c0.676-0.001,1.095-0.388,1.255-1.128l0.16-0.806l4.442-0.003l-0.225,1.32c-0.225,1.287-0.803,2.318-1.736,3.124
		c-0.932,0.805-2.027,1.16-3.282,1.161l-5.248,0.004c-1.255,0.001-2.253-0.416-2.993-1.317c-0.741-0.9-1-1.995-0.775-3.282
		l1.538-8.63c0.224-1.286,0.803-2.35,1.735-3.155c0.934-0.806,2.027-1.226,3.282-1.227L129.414,90.909z M128.774,95.449
		c0.096-0.547-0.099-0.806-0.581-0.805l-3.412,0.002c-0.676,0.001-1.126,0.389-1.254,1.128l-0.386,2.223l5.184-0.004L128.774,95.449
		z"/>
</g>
</svg>
